<?xml version="1.0" encoding="UTF-8"?>
<svg xmlns="http://www.w3.org/2000/svg" width="202" height="30" viewBox="0 0 202 30">
  <g fill="none">
    <path fill="#869032" d="M197.3 12.92c-1.866 0-3.578-1.41-3.578-3.384 0-.606.472-1.117 1.085-1.117.597 0 1.07.49 1.07 1.08 0 .25-.077.46-.2.65.29.6.963.93 1.622.93.88 0 1.75-.67 1.75-1.62 0-1-.9-1.62-1.81-1.62h-.64V6.01h.64c.82 0 1.75-.543 1.75-1.475 0-.994-.83-1.476-1.73-1.476-.6 0-1.29.24-1.56.81.14.19.21.42.21.65 0 .62-.49 1.11-1.07 1.11-.62 0-1.09-.61-1.09-1.21 0-2.15 1.69-3.22 3.44-3.22 1.77 0 3.59 1.1 3.59 3.34 0 .93-.41 1.78-1.1 2.39.72.65 1.16 1.55 1.16 2.55 0 1.97-1.68 3.44-3.57 3.44"/>
    <path fill="#BBC565" d="M27.633 13.536l-4.847 14.632h-3.778l-3.78-11.445-3.74 11.445H7.672l-4.81-14.632H1.078v-4.13h7.698v4.13H7.103l2.46 7.498 3.85-11.627h3.67l3.813 11.627 2.496-7.498h-1.676v-4.13h7.664v4.13h-1.747zm6.028 6.882c.47 2.534 2.14 4.128 4.74 4.128 1.68 0 3.39-.977 4.1-2.535l3.64 1.74c-1.35 2.97-4.52 4.89-7.73 4.89-2.38 0-4.81-.87-6.55-2.82-1.42-1.63-2.35-3.91-2.35-6.99 0-2.93.93-5.25 2.36-6.91 1.71-1.95 4.07-2.97 6.38-2.97 2.25 0 4.53.94 6.13 2.83 1.36 1.56 2.25 3.77 2.25 6.6v2.07H33.66zm4.57-7.353c-2.03 0-3.63 1.34-4.31 3.26h8.38c-.53-1.92-1.99-3.26-4.06-3.26zm27.91 15.103v-3.332c-1.14 2.572-3.42 3.695-5.63 3.695-2.85 0-5.77-1.88-5.77-5.72s3.35-6.19 8.09-6.19h3.32v-1.2c0-1.92-1.64-2.75-3.28-2.75-.85 0-1.71.22-2.31.65.04.15.07.29.07.44 0 1.31-1.03 2.32-2.32 2.32-1.6 0-2.39-.86-2.39-2.21 0-2.13 2.28-4.92 6.81-4.92 3.67 0 7.49 2.14 7.49 6.74v8.4h2.25v4.1h-6.31zm-4.02-8.185c-1.32 0-3.35.724-3.35 2.427 0 1.448 1.29 1.99 2.53 1.99 2.39 0 4.39-2.1 4.78-4.417h-3.96zm24.85-4.818c-1.21 0-2.24-.87-2.35-2.064-2.88 0-4.63 4.13-4.63 6.45v4.53h3.25v4.1h-9.77v-4.1h2.46V13.54h-2.25V9.41h6.31v3.66c1.54-2.68 3.96-4.095 5.96-4.095 2.46 0 3.64 1.558 3.64 3.116s-.96 3.08-2.6 3.08zm6.71 5.253c.46 2.534 2.14 4.128 4.74 4.128 1.68 0 3.39-.977 4.1-2.535l3.64 1.74c-1.35 2.97-4.53 4.89-7.73 4.89-2.39 0-4.81-.87-6.56-2.82-1.42-1.63-2.35-3.91-2.35-6.99 0-2.93.93-5.25 2.36-6.91 1.71-1.95 4.06-2.97 6.38-2.97 2.25 0 4.53.94 6.13 2.83 1.36 1.56 2.25 3.77 2.25 6.6v2.07H93.66zm4.56-7.353c-2.03 0-3.63 1.34-4.31 3.26h8.38c-.53-1.92-1.99-3.26-4.06-3.26zm25.2 15.574c-2.31 0-4.67-1.05-6.34-3.05-1.43-1.7-2.35-4.02-2.35-6.92 0-2.58.85-5.11 2.56-6.96 1.54-1.7 3.71-2.79 6.46-2.79 1.82 0 3.46.51 4.67 1.27 1.5.97 2.39 2.39 2.39 4.05 0 1.37-1.1 2.68-2.53 2.68-1.35 0-2.49-1.16-2.49-2.57 0-.29.04-.58.14-.87-.57-.29-1.32-.44-2.17-.44-3.17 0-4.99 2.53-4.99 5.61 0 1.84.57 3.26 1.39 4.23.89 1.05 2.11 1.63 3.28 1.63 1.86 0 3.25-1.02 4.07-2.68l3.42 2.17c-1.53 2.86-4.24 4.63-7.52 4.63zm21.14-.48v-2.17c-1.39 1.7-3.31 2.61-5.17 2.61-2.96 0-5.52-1.92-5.52-6.05v-9.02h-2.28V9.4h6.31v12.86c0 1.303.97 2.245 2.36 2.245 2.89 0 4.31-2.718 4.31-5.36V13.53h-2.35V9.4h6.42v14.67H151v4.093h-6.415zm25.06-2.9c-1.32 1.81-3.21 2.89-5.31 2.89-2.06 0-3.99-1.02-5.38-2.75v2.75H152v-4.09h2.92V5.57H152V1.44h6.95v10.32c1.424-1.773 3.384-2.787 5.49-2.787 2.1 0 3.92 1.087 5.24 2.898 1.21 1.71 1.923 4.02 1.923 6.7 0 2.68-.75 5.04-1.96 6.7zm-3.35-10.83c-.67-.83-1.64-1.34-2.74-1.34-1.25 0-2.39.54-3.21 1.48-.85.98-1.39 2.32-1.39 3.98s.54 3.08 1.36 4.02c.79.94 1.93 1.48 3.11 1.48 1.14 0 2.14-.55 2.85-1.41.82-.98 1.28-2.39 1.28-4.1 0-1.7-.46-3.15-1.24-4.13zm10.77 5.97c.47 2.53 2.14 4.13 4.74 4.13 1.68 0 3.39-.98 4.1-2.54l3.64 1.74c-1.35 2.97-4.53 4.89-7.73 4.89-2.39 0-4.81-.87-6.56-2.83-1.43-1.63-2.35-3.91-2.35-6.99 0-2.94.92-5.25 2.35-6.92 1.71-1.96 4.06-2.97 6.38-2.97 2.24 0 4.53.94 6.13 2.82 1.35 1.55 2.24 3.76 2.24 6.59v2.07h-12.94zm4.57-7.36c-2.03 0-3.64 1.34-4.31 3.26h8.38c-.53-1.92-1.99-3.26-4.06-3.26zm9.67 9.79h5.29v5.37h-5.29v-5.37z"/>
  </g>
</svg>
